{
	"asset":{
		"generator":"Khronos glTF Blender I/O v4.0.44",
		"version":"2.0"
	},
	"scene":0,
	"scenes":[
		{
			"name":"Scene",
			"nodes":[
				0,
				1,
				2
			]
		}
	],
	"nodes":[
		{
			"mesh":0,
			"name":"BezierCircle"
		},
		{
			"mesh":1,
			"name":"BezierCircle.001",
			"scale":[
				1.2463608980178833,
				1.2463608980178833,
				1.2463608980178833
			]
		},
		{
			"mesh":2,
			"name":"BezierCircle.002",
			"scale":[
				1.5146019458770752,
				1.5146019458770752,
				1.5146019458770752
			]
		}
	],
	"animations":[
		{
			"channels":[
				{
					"sampler":0,
					"target":{
						"node":0,
						"path":"rotation"
					}
				}
			],
			"name":"BezierCircleAction",
			"samplers":[
				{
					"input":10,
					"interpolation":"LINEAR",
					"output":11
				}
			]
		},
		{
			"channels":[
				{
					"sampler":0,
					"target":{
						"node":1,
						"path":"rotation"
					}
				}
			],
			"name":"BezierCircle.001Action",
			"samplers":[
				{
					"input":10,
					"interpolation":"LINEAR",
					"output":12
				}
			]
		},
		{
			"channels":[
				{
					"sampler":0,
					"target":{
						"node":2,
						"path":"rotation"
					}
				}
			],
			"name":"BezierCircle.002Action",
			"samplers":[
				{
					"input":10,
					"interpolation":"LINEAR",
					"output":13
				}
			]
		}
	],
	"materials":[
		{
			"doubleSided":true,
			"name":"Material.002",
			"pbrMetallicRoughness":{}
		},
		{
			"doubleSided":true,
			"name":"Material.001",
			"pbrMetallicRoughness":{}
		},
		{
			"doubleSided":true,
			"name":"Material",
			"pbrMetallicRoughness":{}
		}
	],
	"meshes":[
		{
			"name":"BezierCircle",
			"primitives":[
				{
					"attributes":{
						"POSITION":0,
						"NORMAL":1,
						"TEXCOORD_0":2
					},
					"indices":3,
					"material":0
				}
			]
		},
		{
			"name":"BezierCircle.001",
			"primitives":[
				{
					"attributes":{
						"POSITION":4,
						"NORMAL":5,
						"TEXCOORD_0":6
					},
					"indices":3,
					"material":1
				}
			]
		},
		{
			"name":"BezierCircle.002",
			"primitives":[
				{
					"attributes":{
						"POSITION":7,
						"NORMAL":8,
						"TEXCOORD_0":9
					},
					"indices":3,
					"material":2
				}
			]
		}
	],
	"accessors":[
		{
			"bufferView":0,
			"componentType":5126,
			"count":2579,
			"max":[
				1,
				0.06600003689527512,
				1
			],
			"min":[
				-1,
				-0.06600004434585571,
				-1
			],
			"type":"VEC3"
		},
		{
			"bufferView":1,
			"componentType":5126,
			"count":2579,
			"type":"VEC3"
		},
		{
			"bufferView":2,
			"componentType":5126,
			"count":2579,
			"type":"VEC2"
		},
		{
			"bufferView":3,
			"componentType":5123,
			"count":12288,
			"type":"SCALAR"
		},
		{
			"bufferView":4,
			"componentType":5126,
			"count":2579,
			"max":[
				1,
				0.06600003689527512,
				1
			],
			"min":[
				-1,
				-0.06600004434585571,
				-1
			],
			"type":"VEC3"
		},
		{
			"bufferView":5,
			"componentType":5126,
			"count":2579,
			"type":"VEC3"
		},
		{
			"bufferView":6,
			"componentType":5126,
			"count":2579,
			"type":"VEC2"
		},
		{
			"bufferView":7,
			"componentType":5126,
			"count":2579,
			"max":[
				1,
				0.06600003689527512,
				1
			],
			"min":[
				-1,
				-0.06600004434585571,
				-1
			],
			"type":"VEC3"
		},
		{
			"bufferView":8,
			"componentType":5126,
			"count":2579,
			"type":"VEC3"
		},
		{
			"bufferView":9,
			"componentType":5126,
			"count":2579,
			"type":"VEC2"
		},
		{
			"bufferView":10,
			"componentType":5126,
			"count":81,
			"max":[
				3.3333333333333335
			],
			"min":[
				0
			],
			"type":"SCALAR"
		},
		{
			"bufferView":11,
			"componentType":5126,
			"count":81,
			"type":"VEC4"
		},
		{
			"bufferView":12,
			"componentType":5126,
			"count":81,
			"type":"VEC4"
		},
		{
			"bufferView":13,
			"componentType":5126,
			"count":81,
			"type":"VEC4"
		}
	],
	"bufferViews":[
		{
			"buffer":0,
			"byteLength":30948,
			"byteOffset":0,
			"target":34962
		},
		{
			"buffer":0,
			"byteLength":30948,
			"byteOffset":30948,
			"target":34962
		},
		{
			"buffer":0,
			"byteLength":20632,
			"byteOffset":61896,
			"target":34962
		},
		{
			"buffer":0,
			"byteLength":24576,
			"byteOffset":82528,
			"target":34963
		},
		{
			"buffer":0,
			"byteLength":30948,
			"byteOffset":107104,
			"target":34962
		},
		{
			"buffer":0,
			"byteLength":30948,
			"byteOffset":138052,
			"target":34962
		},
		{
			"buffer":0,
			"byteLength":20632,
			"byteOffset":169000,
			"target":34962
		},
		{
			"buffer":0,
			"byteLength":30948,
			"byteOffset":189632,
			"target":34962
		},
		{
			"buffer":0,
			"byteLength":30948,
			"byteOffset":220580,
			"target":34962
		},
		{
			"buffer":0,
			"byteLength":20632,
			"byteOffset":251528,
			"target":34962
		},
		{
			"buffer":0,
			"byteLength":324,
			"byteOffset":272160
		},
		{
			"buffer":0,
			"byteLength":1296,
			"byteOffset":272484
		},
		{
			"buffer":0,
			"byteLength":1296,
			"byteOffset":273780
		},
		{
			"buffer":0,
			"byteLength":1296,
			"byteOffset":275076
		}
	],
	"buffers":[
		{
			"byteLength":276372,
			"uri":"bCircle3d.bin"
		}
	]
}
